<svg xmlns="http://www.w3.org/2000/svg" xmlns:xlink="http://www.w3.org/1999/xlink" width="840" height="602.75"><rect width="840" height="602.75" rx="5" ry="5" class="a"/><svg y="0%" x="0%"><circle cx="20" cy="20" r="6" fill="#ff5f58"/><circle cx="40" cy="20" r="6" fill="#ffbd2e"/><circle cx="60" cy="20" r="6" fill="#18c132"/></svg><svg height="542.75" viewBox="0 0 80 54.275" width="800" x="15" xmlns="http://www.w3.org/2000/svg" xmlns:xlink="http://www.w3.org/1999/xlink" y="50"><style>@keyframes m{0%{transform:translateX(0)}.45%{transform:translateX(-80px)}.46%{transform:translateX(-160px)}.95%{transform:translateX(-240px)}.99%{transform:translateX(-400px)}5.36%{transform:translateX(-480px)}5.82%{transform:translateX(-560px)}6.38%{transform:translateX(-640px)}8.02%{transform:translateX(-720px)}13.73%{transform:translateX(-800px)}14.39%{transform:translateX(-880px)}14.93%{transform:translateX(-960px)}17.21%{transform:translateX(-1040px)}17.23%{transform:translateX(-1200px)}17.27%{transform:translateX(-1280px)}18.13%{transform:translateX(-1520px)}18.2%{transform:translateX(-1760px)}24.88%{transform:translateX(-1840px)}28.99%{transform:translateX(-1920px)}32.84%{transform:translateX(-2000px)}33.46%{transform:translateX(-2080px)}33.76%{transform:translateX(-2160px)}37.42%{transform:translateX(-2240px)}38.16%{transform:translateX(-2320px)}38.55%{transform:translateX(-2400px)}43.08%{transform:translateX(-2480px)}43.1%{transform:translateX(-2640px)}43.99%{transform:translateX(-2720px)}44.87%{transform:translateX(-2800px)}44.88%{transform:translateX(-2960px)}44.95%{transform:translateX(-3120px)}49.45%{transform:translateX(-3200px)}52.75%{transform:translateX(-3280px)}55.52%{transform:translateX(-3360px)}56.49%{transform:translateX(-3440px)}57.16%{transform:translateX(-3520px)}57.66%{transform:translateX(-3600px)}61.5%{transform:translateX(-3680px)}61.52%{transform:translateX(-3840px)}63.35%{transform:translateX(-3920px)}64.18%{transform:translateX(-4240px)}64.25%{transform:translateX(-4400px)}67.41%{transform:translateX(-4480px)}70.18%{transform:translateX(-4560px)}72.63%{transform:translateX(-4640px)}73.28%{transform:translateX(-4720px)}74.21%{transform:translateX(-4800px)}75.02%{transform:translateX(-4880px)}79.95%{transform:translateX(-4960px)}82.39%{transform:translateX(-5040px)}85.66%{transform:translateX(-5120px)}86.22%{transform:translateX(-5200px)}86.25%{transform:translateX(-5360px)}93.25%{transform:translateX(-5520px)}93.31%{transform:translateX(-5680px)}to{transform:translateX(-5760px)}}.a{fill:#282d35}.f,.g,.h{fill:#b9c0cb;white-space:pre}.g,.h{fill:#a8cc8c;font-weight:700}.h{fill:#66c2cd}.i{fill:#a8cc8c}.i,.j,.k{white-space:pre}.j{fill:#e88388;font-weight:700}.k{fill:#b9c0cb;text-decoration:underline}</style><g font-family="Monaco,Consolas,Menlo,'Bitstream Vera Sans Mono','Powerline Symbols',monospace" font-size="1.67"><defs><symbol id="1"><text y="1.67" class="f">(base)</text><text x="7.014" y="1.67" class="g">➜</text><text x="10.02" y="1.67" class="h">~</text></symbol><symbol id="2"><text y="1.67" class="f">(base)</text><text x="7.014" y="1.67" class="g">➜</text><text x="10.02" y="1.67" class="h">~</text><text x="12.024" y="1.67" class="i">lxc-template-downloader</text><text x="36.072" y="1.67" class="f">get</text></symbol><symbol id="3"><text y="1.67" class="j">ERROR:</text><text x="7.014" y="1.67" class="f">Please</text><text x="14.028" y="1.67" class="f">Provide</text><text x="22.044" y="1.67" class="f">OS</text><text x="25.05" y="1.67" class="f">Name,</text><text x="31.062" y="1.67" class="f">possible</text><text x="40.08" y="1.67" class="f">options:</text></symbol><symbol id="4"><text y="1.67" class="f">almalinux,</text><text x="11.022" y="1.67" class="f">alpine,</text><text x="19.038" y="1.67" class="f">alt,</text><text x="24.048" y="1.67" class="f">amazonlinux,</text><text x="37.074" y="1.67" class="f">apertis,</text><text x="46.092" y="1.67" class="f">archlinux,</text><text x="57.114" y="1.67" class="f">busybox,</text><text x="66.132" y="1.67" class="f">centos,</text><text x="74.148" y="1.67" class="f">debian</text></symbol><symbol id="5"><text y="1.67" class="f">,</text><text x="2.004" y="1.67" class="f">devuan,</text><text x="10.02" y="1.67" class="f">fedora,</text><text x="18.036" y="1.67" class="f">funtoo,</text><text x="26.052" y="1.67" class="f">gentoo,</text><text x="34.068" y="1.67" class="f">kali,</text><text x="40.08" y="1.67" class="f">mint,</text><text x="46.092" y="1.67" class="f">opensuse,</text><text x="56.112" y="1.67" class="f">openwrt,</text><text x="65.13" y="1.67" class="f">oracle,</text><text x="73.146" y="1.67" class="f">plamo,</text></symbol><symbol id="6"><text y="1.67" class="f">pld,</text><text x="5.01" y="1.67" class="f">rockylinux,</text><text x="17.034" y="1.67" class="f">springdalelinux,</text><text x="34.068" y="1.67" class="f">ubuntu,</text><text x="42.084" y="1.67" class="f">voidlinux</text></symbol><symbol id="7"><text y="1.67" class="f">(base)</text><text x="7.014" y="1.67" class="j">➜</text><text x="10.02" y="1.67" class="h">~</text></symbol><symbol id="8"><text y="1.67" class="f">(base)</text><text x="7.014" y="1.67" class="j">➜</text><text x="10.02" y="1.67" class="h">~</text><text x="12.024" y="1.67" class="i">lxc-template-downloader</text><text x="36.072" y="1.67" class="f">get</text></symbol><symbol id="9"><text y="1.67" class="f">(base)</text><text x="7.014" y="1.67" class="j">➜</text><text x="10.02" y="1.67" class="h">~</text><text x="12.024" y="1.67" class="i">lxc-template-downloader</text><text x="36.072" y="1.67" class="f">get</text><text x="40.08" y="1.67" class="k">alpine</text></symbol><symbol id="10"><text y="1.67" class="f">(base)</text><text x="7.014" y="1.67" class="j">➜</text><text x="10.02" y="1.67" class="h">~</text><text x="12.024" y="1.67" class="i">lxc-template-downloader</text><text x="36.072" y="1.67" class="f">get</text><text x="40.08" y="1.67" class="f">alpine</text></symbol><symbol id="11"><text y="1.67" class="j">ERROR:</text><text x="7.014" y="1.67" class="f">Please</text><text x="14.028" y="1.67" class="f">Provide</text><text x="22.044" y="1.67" class="f">OS</text><text x="25.05" y="1.67" class="f">Version,</text><text x="34.068" y="1.67" class="f">possible</text><text x="43.086" y="1.67" class="f">options:</text></symbol><symbol id="12"><text y="1.67" class="f">3.12,</text><text x="6.012" y="1.67" class="f">3.13,</text><text x="12.024" y="1.67" class="f">3.14,</text><text x="18.036" y="1.67" class="f">3.15,</text><text x="24.048" y="1.67" class="f">edge</text></symbol><symbol id="13"><text y="1.67" class="f">(base)</text><text x="7.014" y="1.67" class="j">➜</text><text x="10.02" y="1.67" class="h">~</text><text x="12.024" y="1.67" class="i">lxc-template-downloader</text><text x="36.072" y="1.67" class="f">get</text><text x="40.08" y="1.67" class="f">alpine</text><text x="47.094" y="1.67" class="f">3.12</text></symbol><symbol id="14"><text y="1.67" class="j">ERROR:</text><text x="7.014" y="1.67" class="f">Please</text><text x="14.028" y="1.67" class="f">Provide</text><text x="22.044" y="1.67" class="f">OS</text><text x="25.05" y="1.67" class="f">Arch,</text><text x="31.062" y="1.67" class="f">possible</text><text x="40.08" y="1.67" class="f">options:</text></symbol><symbol id="15"><text y="1.67" class="f">amd64,</text><text x="7.014" y="1.67" class="f">arm64,</text><text x="14.028" y="1.67" class="f">armhf,</text><text x="21.042" y="1.67" class="f">i386,</text><text x="27.054" y="1.67" class="f">ppc64el,</text><text x="36.072" y="1.67" class="f">s390x</text></symbol><symbol id="16"><text y="1.67" class="f">(base)</text><text x="7.014" y="1.67" class="j">➜</text><text x="10.02" y="1.67" class="h">~</text><text x="12.024" y="1.67" class="i">lxc-template-downloader</text><text x="36.072" y="1.67" class="f">get</text><text x="40.08" y="1.67" class="f">alpine</text><text x="47.094" y="1.67" class="f">3.12</text><text x="52.104" y="1.67" class="f">arm</text></symbol><symbol id="17"><text y="1.67" class="f">(base)</text><text x="7.014" y="1.67" class="j">➜</text><text x="10.02" y="1.67" class="h">~</text><text x="12.024" y="1.67" class="i">lxc-template-downloader</text><text x="36.072" y="1.67" class="f">get</text><text x="40.08" y="1.67" class="f">alpine</text><text x="47.094" y="1.67" class="f">3.12</text><text x="52.104" y="1.67" class="f">arm64</text></symbol><symbol id="a"><path fill="transparent" d="M0 0h80v25H0z"/></symbol></defs><path class="a" d="M0 0h80v54.275H0z"/><g style="animation-duration:22.203599s;animation-iteration-count:infinite;animation-name:m;animation-timing-function:steps(1,end)"><svg width="5840"><svg><use xlink:href="#a"/></svg><svg x="80"><use xlink:href="#a"/></svg><svg x="160"><use xlink:href="#a"/></svg><svg x="240"><use xlink:href="#a"/></svg><svg x="320"><use xlink:href="#a"/><use xlink:href="#1"/></svg><svg x="400"><use xlink:href="#a"/><use xlink:href="#1"/></svg><svg x="480"><use xlink:href="#a"/><text y="1.67" class="f">(base)</text><text x="7.014" y="1.67" class="g">➜</text><text x="10.02" y="1.67" class="h">~</text><text x="12.024" y="1.67" class="i">l</text></svg><svg x="560"><use xlink:href="#a"/><text y="1.67" class="f">(base)</text><text x="7.014" y="1.67" class="g">➜</text><text x="10.02" y="1.67" class="h">~</text><text x="12.024" y="1.67" class="j">lx</text></svg><svg x="640"><use xlink:href="#a"/><text y="1.67" class="f">(base)</text><text x="7.014" y="1.67" class="g">➜</text><text x="10.02" y="1.67" class="h">~</text><text x="12.024" y="1.67" class="j">lxc</text></svg><svg x="720"><use xlink:href="#a"/><text y="1.67" class="f">(base)</text><text x="7.014" y="1.67" class="g">➜</text><text x="10.02" y="1.67" class="h">~</text><text x="12.024" y="1.67" class="i">lxc-template-downloader</text></svg><svg x="800"><use xlink:href="#a"/><text y="1.67" class="f">(base)</text><text x="7.014" y="1.67" class="g">➜</text><text x="10.02" y="1.67" class="h">~</text><text x="12.024" y="1.67" class="i">lxc-template-downloader</text><text x="36.072" y="1.67" class="k">g</text></svg><svg x="880"><use xlink:href="#a"/><text y="1.67" class="f">(base)</text><text x="7.014" y="1.67" class="g">➜</text><text x="10.02" y="1.67" class="h">~</text><text x="12.024" y="1.67" class="i">lxc-template-downloader</text><text x="36.072" y="1.67" class="f">ge</text></svg><svg x="960"><use xlink:href="#a"/><use xlink:href="#2"/></svg><svg x="1040"><use xlink:href="#a"/><use xlink:href="#2"/></svg><svg x="1120"><use xlink:href="#a"/><use xlink:href="#2"/></svg><svg x="1200"><use xlink:href="#a"/><use xlink:href="#2"/></svg><svg x="1280"><use xlink:href="#a"/><use xlink:href="#2"/><use xlink:href="#3" y="2.171"/></svg><svg x="1360"><use xlink:href="#a"/><use xlink:href="#2"/><use xlink:href="#3" y="2.171"/><use xlink:href="#4" y="4.342"/><use xlink:href="#5" y="6.513"/><use xlink:href="#6" y="8.684"/></svg><svg x="1440"><use xlink:href="#a"/><use xlink:href="#2"/><use xlink:href="#3" y="2.171"/><use xlink:href="#4" y="4.342"/><use xlink:href="#5" y="6.513"/><use xlink:href="#6" y="8.684"/></svg><svg x="1520"><use xlink:href="#a"/><use xlink:href="#2"/><use xlink:href="#3" y="2.171"/><use xlink:href="#4" y="4.342"/><use xlink:href="#5" y="6.513"/><use xlink:href="#6" y="8.684"/></svg><svg x="1600"><use xlink:href="#a"/><use xlink:href="#2"/><use xlink:href="#3" y="2.171"/><use xlink:href="#4" y="4.342"/><use xlink:href="#5" y="6.513"/><use xlink:href="#6" y="8.684"/><use xlink:href="#7" y="10.855"/></svg><svg x="1680"><use xlink:href="#a"/><use xlink:href="#2"/><use xlink:href="#3" y="2.171"/><use xlink:href="#4" y="4.342"/><use xlink:href="#5" y="6.513"/><use xlink:href="#6" y="8.684"/><use xlink:href="#7" y="10.855"/></svg><svg x="1760"><use xlink:href="#a"/><use xlink:href="#2"/><use xlink:href="#3" y="2.171"/><use xlink:href="#4" y="4.342"/><use xlink:href="#5" y="6.513"/><use xlink:href="#6" y="8.684"/><use xlink:href="#7" y="10.855"/></svg><svg x="1840"><use xlink:href="#a"/><use xlink:href="#2"/><use xlink:href="#3" y="2.171"/><use xlink:href="#4" y="4.342"/><use xlink:href="#5" y="6.513"/><use xlink:href="#6" y="8.684"/><use xlink:href="#8" y="10.855"/></svg><svg x="1920"><use xlink:href="#a"/><use xlink:href="#2"/><use xlink:href="#3" y="2.171"/><use xlink:href="#4" y="4.342"/><use xlink:href="#5" y="6.513"/><use xlink:href="#6" y="8.684"/><use xlink:href="#8" y="10.855"/></svg><svg x="2000"><use xlink:href="#a"/><use xlink:href="#2"/><use xlink:href="#3" y="2.171"/><use xlink:href="#4" y="4.342"/><use xlink:href="#5" y="6.513"/><use xlink:href="#6" y="8.684"/><text y="12.525" class="f">(base)</text><text x="7.014" y="12.525" class="j">➜</text><text x="10.02" y="12.525" class="h">~</text><text x="12.024" y="12.525" class="i">lxc-template-downloader</text><text x="36.072" y="12.525" class="f">get</text><text x="40.08" y="12.525" class="k">a</text></svg><svg x="2080"><use xlink:href="#a"/><use xlink:href="#2"/><use xlink:href="#3" y="2.171"/><use xlink:href="#4" y="4.342"/><use xlink:href="#5" y="6.513"/><use xlink:href="#6" y="8.684"/><text y="12.525" class="f">(base)</text><text x="7.014" y="12.525" class="j">➜</text><text x="10.02" y="12.525" class="h">~</text><text x="12.024" y="12.525" class="i">lxc-template-downloader</text><text x="36.072" y="12.525" class="f">get</text><text x="40.08" y="12.525" class="k">al</text></svg><svg x="2160"><use xlink:href="#a"/><use xlink:href="#2"/><use xlink:href="#3" y="2.171"/><use xlink:href="#4" y="4.342"/><use xlink:href="#5" y="6.513"/><use xlink:href="#6" y="8.684"/><text y="12.525" class="f">(base)</text><text x="7.014" y="12.525" class="j">➜</text><text x="10.02" y="12.525" class="h">~</text><text x="12.024" y="12.525" class="i">lxc-template-downloader</text><text x="36.072" y="12.525" class="f">get</text><text x="40.08" y="12.525" class="k">alp</text></svg><svg x="2240"><use xlink:href="#a"/><use xlink:href="#2"/><use xlink:href="#3" y="2.171"/><use xlink:href="#4" y="4.342"/><use xlink:href="#5" y="6.513"/><use xlink:href="#6" y="8.684"/><text y="12.525" class="f">(base)</text><text x="7.014" y="12.525" class="j">➜</text><text x="10.02" y="12.525" class="h">~</text><text x="12.024" y="12.525" class="i">lxc-template-downloader</text><text x="36.072" y="12.525" class="f">get</text><text x="40.08" y="12.525" class="k">alpi</text></svg><svg x="2320"><use xlink:href="#a"/><use xlink:href="#2"/><use xlink:href="#3" y="2.171"/><use xlink:href="#4" y="4.342"/><use xlink:href="#5" y="6.513"/><use xlink:href="#6" y="8.684"/><text y="12.525" class="f">(base)</text><text x="7.014" y="12.525" class="j">➜</text><text x="10.02" y="12.525" class="h">~</text><text x="12.024" y="12.525" class="i">lxc-template-downloader</text><text x="36.072" y="12.525" class="f">get</text><text x="40.08" y="12.525" class="k">alpin</text></svg><svg x="2400"><use xlink:href="#a"/><use xlink:href="#2"/><use xlink:href="#3" y="2.171"/><use xlink:href="#4" y="4.342"/><use xlink:href="#5" y="6.513"/><use xlink:href="#6" y="8.684"/><use xlink:href="#9" y="10.855"/></svg><svg x="2480"><use xlink:href="#a"/><use xlink:href="#2"/><use xlink:href="#3" y="2.171"/><use xlink:href="#4" y="4.342"/><use xlink:href="#5" y="6.513"/><use xlink:href="#6" y="8.684"/><use xlink:href="#9" y="10.855"/></svg><svg x="2560"><use xlink:href="#a"/><use xlink:href="#2"/><use xlink:href="#3" y="2.171"/><use xlink:href="#4" y="4.342"/><use xlink:href="#5" y="6.513"/><use xlink:href="#6" y="8.684"/><use xlink:href="#10" y="10.855"/></svg><svg x="2640"><use xlink:href="#a"/><use xlink:href="#2"/><use xlink:href="#3" y="2.171"/><use xlink:href="#4" y="4.342"/><use xlink:href="#5" y="6.513"/><use xlink:href="#6" y="8.684"/><use xlink:href="#10" y="10.855"/></svg><svg x="2720"><use xlink:href="#a"/><use xlink:href="#2"/><use xlink:href="#3" y="2.171"/><use xlink:href="#4" y="4.342"/><use xlink:href="#5" y="6.513"/><use xlink:href="#6" y="8.684"/><use xlink:href="#10" y="10.855"/><use xlink:href="#11" y="13.026"/></svg><svg x="2800"><use xlink:href="#a"/><use xlink:href="#2"/><use xlink:href="#3" y="2.171"/><use xlink:href="#4" y="4.342"/><use xlink:href="#5" y="6.513"/><use xlink:href="#6" y="8.684"/><use xlink:href="#10" y="10.855"/><use xlink:href="#11" y="13.026"/><use xlink:href="#12" y="15.197"/></svg><svg x="2880"><use xlink:href="#a"/><use xlink:href="#2"/><use xlink:href="#3" y="2.171"/><use xlink:href="#4" y="4.342"/><use xlink:href="#5" y="6.513"/><use xlink:href="#6" y="8.684"/><use xlink:href="#10" y="10.855"/><use xlink:href="#11" y="13.026"/><use xlink:href="#12" y="15.197"/></svg><svg x="2960"><use xlink:href="#a"/><use xlink:href="#2"/><use xlink:href="#3" y="2.171"/><use xlink:href="#4" y="4.342"/><use xlink:href="#5" y="6.513"/><use xlink:href="#6" y="8.684"/><use xlink:href="#10" y="10.855"/><use xlink:href="#11" y="13.026"/><use xlink:href="#12" y="15.197"/></svg><svg x="3040"><use xlink:href="#a"/><use xlink:href="#2"/><use xlink:href="#3" y="2.171"/><use xlink:href="#4" y="4.342"/><use xlink:href="#5" y="6.513"/><use xlink:href="#6" y="8.684"/><use xlink:href="#10" y="10.855"/><use xlink:href="#11" y="13.026"/><use xlink:href="#12" y="15.197"/><use xlink:href="#7" y="17.368"/></svg><svg x="3120"><use xlink:href="#a"/><use xlink:href="#2"/><use xlink:href="#3" y="2.171"/><use xlink:href="#4" y="4.342"/><use xlink:href="#5" y="6.513"/><use xlink:href="#6" y="8.684"/><use xlink:href="#10" y="10.855"/><use xlink:href="#11" y="13.026"/><use xlink:href="#12" y="15.197"/><use xlink:href="#7" y="17.368"/></svg><svg x="3200"><use xlink:href="#a"/><use xlink:href="#2"/><use xlink:href="#3" y="2.171"/><use xlink:href="#4" y="4.342"/><use xlink:href="#5" y="6.513"/><use xlink:href="#6" y="8.684"/><use xlink:href="#10" y="10.855"/><use xlink:href="#11" y="13.026"/><use xlink:href="#12" y="15.197"/><use xlink:href="#9" y="17.368"/></svg><svg x="3280"><use xlink:href="#a"/><use xlink:href="#2"/><use xlink:href="#3" y="2.171"/><use xlink:href="#4" y="4.342"/><use xlink:href="#5" y="6.513"/><use xlink:href="#6" y="8.684"/><use xlink:href="#10" y="10.855"/><use xlink:href="#11" y="13.026"/><use xlink:href="#12" y="15.197"/><use xlink:href="#10" y="17.368"/></svg><svg x="3360"><use xlink:href="#a"/><use xlink:href="#2"/><use xlink:href="#3" y="2.171"/><use xlink:href="#4" y="4.342"/><use xlink:href="#5" y="6.513"/><use xlink:href="#6" y="8.684"/><use xlink:href="#10" y="10.855"/><use xlink:href="#11" y="13.026"/><use xlink:href="#12" y="15.197"/><text y="19.038" class="f">(base)</text><text x="7.014" y="19.038" class="j">➜</text><text x="10.02" y="19.038" class="h">~</text><text x="12.024" y="19.038" class="i">lxc-template-downloader</text><text x="36.072" y="19.038" class="f">get</text><text x="40.08" y="19.038" class="f">alpine</text><text x="47.094" y="19.038" class="f">3</text></svg><svg x="3440"><use xlink:href="#a"/><use xlink:href="#2"/><use xlink:href="#3" y="2.171"/><use xlink:href="#4" y="4.342"/><use xlink:href="#5" y="6.513"/><use xlink:href="#6" y="8.684"/><use xlink:href="#10" y="10.855"/><use xlink:href="#11" y="13.026"/><use xlink:href="#12" y="15.197"/><text y="19.038" class="f">(base)</text><text x="7.014" y="19.038" class="j">➜</text><text x="10.02" y="19.038" class="h">~</text><text x="12.024" y="19.038" class="i">lxc-template-downloader</text><text x="36.072" y="19.038" class="f">get</text><text x="40.08" y="19.038" class="f">alpine</text><text x="47.094" y="19.038" class="f">3.</text></svg><svg x="3520"><use xlink:href="#a"/><use xlink:href="#2"/><use xlink:href="#3" y="2.171"/><use xlink:href="#4" y="4.342"/><use xlink:href="#5" y="6.513"/><use xlink:href="#6" y="8.684"/><use xlink:href="#10" y="10.855"/><use xlink:href="#11" y="13.026"/><use xlink:href="#12" y="15.197"/><text y="19.038" class="f">(base)</text><text x="7.014" y="19.038" class="j">➜</text><text x="10.02" y="19.038" class="h">~</text><text x="12.024" y="19.038" class="i">lxc-template-downloader</text><text x="36.072" y="19.038" class="f">get</text><text x="40.08" y="19.038" class="f">alpine</text><text x="47.094" y="19.038" class="f">3.1</text></svg><svg x="3600"><use xlink:href="#a"/><use xlink:href="#2"/><use xlink:href="#3" y="2.171"/><use xlink:href="#4" y="4.342"/><use xlink:href="#5" y="6.513"/><use xlink:href="#6" y="8.684"/><use xlink:href="#10" y="10.855"/><use xlink:href="#11" y="13.026"/><use xlink:href="#12" y="15.197"/><use xlink:href="#13" y="17.368"/></svg><svg x="3680"><use xlink:href="#a"/><use xlink:href="#2"/><use xlink:href="#3" y="2.171"/><use xlink:href="#4" y="4.342"/><use xlink:href="#5" y="6.513"/><use xlink:href="#6" y="8.684"/><use xlink:href="#10" y="10.855"/><use xlink:href="#11" y="13.026"/><use xlink:href="#12" y="15.197"/><use xlink:href="#13" y="17.368"/></svg><svg x="3760"><use xlink:href="#a"/><use xlink:href="#2"/><use xlink:href="#3" y="2.171"/><use xlink:href="#4" y="4.342"/><use xlink:href="#5" y="6.513"/><use xlink:href="#6" y="8.684"/><use xlink:href="#10" y="10.855"/><use xlink:href="#11" y="13.026"/><use xlink:href="#12" y="15.197"/><use xlink:href="#13" y="17.368"/></svg><svg x="3840"><use xlink:href="#a"/><use xlink:href="#2"/><use xlink:href="#3" y="2.171"/><use xlink:href="#4" y="4.342"/><use xlink:href="#5" y="6.513"/><use xlink:href="#6" y="8.684"/><use xlink:href="#10" y="10.855"/><use xlink:href="#11" y="13.026"/><use xlink:href="#12" y="15.197"/><use xlink:href="#13" y="17.368"/></svg><svg x="3920"><use xlink:href="#a"/><use xlink:href="#2"/><use xlink:href="#3" y="2.171"/><use xlink:href="#4" y="4.342"/><use xlink:href="#5" y="6.513"/><use xlink:href="#6" y="8.684"/><use xlink:href="#10" y="10.855"/><use xlink:href="#11" y="13.026"/><use xlink:href="#12" y="15.197"/><use xlink:href="#13" y="17.368"/><use xlink:href="#14" y="19.539"/></svg><svg x="4000"><use xlink:href="#a"/><use xlink:href="#2"/><use xlink:href="#3" y="2.171"/><use xlink:href="#4" y="4.342"/><use xlink:href="#5" y="6.513"/><use xlink:href="#6" y="8.684"/><use xlink:href="#10" y="10.855"/><use xlink:href="#11" y="13.026"/><use xlink:href="#12" y="15.197"/><use xlink:href="#13" y="17.368"/><use xlink:href="#14" y="19.539"/><use xlink:href="#15" y="21.71"/></svg><svg x="4080"><use xlink:href="#a"/><use xlink:href="#2"/><use xlink:href="#3" y="2.171"/><use xlink:href="#4" y="4.342"/><use xlink:href="#5" y="6.513"/><use xlink:href="#6" y="8.684"/><use xlink:href="#10" y="10.855"/><use xlink:href="#11" y="13.026"/><use xlink:href="#12" y="15.197"/><use xlink:href="#13" y="17.368"/><use xlink:href="#14" y="19.539"/><use xlink:href="#15" y="21.71"/></svg><svg x="4160"><use xlink:href="#a"/><use xlink:href="#2"/><use xlink:href="#3" y="2.171"/><use xlink:href="#4" y="4.342"/><use xlink:href="#5" y="6.513"/><use xlink:href="#6" y="8.684"/><use xlink:href="#10" y="10.855"/><use xlink:href="#11" y="13.026"/><use xlink:href="#12" y="15.197"/><use xlink:href="#13" y="17.368"/><use xlink:href="#14" y="19.539"/><use xlink:href="#15" y="21.71"/></svg><svg x="4240"><use xlink:href="#a"/><use xlink:href="#2"/><use xlink:href="#3" y="2.171"/><use xlink:href="#4" y="4.342"/><use xlink:href="#5" y="6.513"/><use xlink:href="#6" y="8.684"/><use xlink:href="#10" y="10.855"/><use xlink:href="#11" y="13.026"/><use xlink:href="#12" y="15.197"/><use xlink:href="#13" y="17.368"/><use xlink:href="#14" y="19.539"/><use xlink:href="#15" y="21.71"/></svg><svg x="4320"><use xlink:href="#a"/><use xlink:href="#2"/><use xlink:href="#3" y="2.171"/><use xlink:href="#4" y="4.342"/><use xlink:href="#5" y="6.513"/><use xlink:href="#6" y="8.684"/><use xlink:href="#10" y="10.855"/><use xlink:href="#11" y="13.026"/><use xlink:href="#12" y="15.197"/><use xlink:href="#13" y="17.368"/><use xlink:href="#14" y="19.539"/><use xlink:href="#15" y="21.71"/><use xlink:href="#7" y="23.881"/></svg><svg x="4400"><use xlink:href="#a"/><use xlink:href="#2"/><use xlink:href="#3" y="2.171"/><use xlink:href="#4" y="4.342"/><use xlink:href="#5" y="6.513"/><use xlink:href="#6" y="8.684"/><use xlink:href="#10" y="10.855"/><use xlink:href="#11" y="13.026"/><use xlink:href="#12" y="15.197"/><use xlink:href="#13" y="17.368"/><use xlink:href="#14" y="19.539"/><use xlink:href="#15" y="21.71"/><use xlink:href="#7" y="23.881"/></svg><svg x="4480"><use xlink:href="#a"/><use xlink:href="#2"/><use xlink:href="#3" y="2.171"/><use xlink:href="#4" y="4.342"/><use xlink:href="#5" y="6.513"/><use xlink:href="#6" y="8.684"/><use xlink:href="#10" y="10.855"/><use xlink:href="#11" y="13.026"/><use xlink:href="#12" y="15.197"/><use xlink:href="#13" y="17.368"/><use xlink:href="#14" y="19.539"/><use xlink:href="#15" y="21.71"/><use xlink:href="#13" y="23.881"/></svg><svg x="4560"><use xlink:href="#a"/><use xlink:href="#2"/><use xlink:href="#3" y="2.171"/><use xlink:href="#4" y="4.342"/><use xlink:href="#5" y="6.513"/><use xlink:href="#6" y="8.684"/><use xlink:href="#10" y="10.855"/><use xlink:href="#11" y="13.026"/><use xlink:href="#12" y="15.197"/><use xlink:href="#13" y="17.368"/><use xlink:href="#14" y="19.539"/><use xlink:href="#15" y="21.71"/><use xlink:href="#13" y="23.881"/></svg><svg x="4640"><use xlink:href="#a"/><use xlink:href="#2"/><use xlink:href="#3" y="2.171"/><use xlink:href="#4" y="4.342"/><use xlink:href="#5" y="6.513"/><use xlink:href="#6" y="8.684"/><use xlink:href="#10" y="10.855"/><use xlink:href="#11" y="13.026"/><use xlink:href="#12" y="15.197"/><use xlink:href="#13" y="17.368"/><use xlink:href="#14" y="19.539"/><use xlink:href="#15" y="21.71"/><text y="25.551" class="f">(base)</text><text x="7.014" y="25.551" class="j">➜</text><text x="10.02" y="25.551" class="h">~</text><text x="12.024" y="25.551" class="i">lxc-template-downloader</text><text x="36.072" y="25.551" class="f">get</text><text x="40.08" y="25.551" class="f">alpine</text><text x="47.094" y="25.551" class="f">3.12</text><text x="52.104" y="25.551" class="k">a</text></svg><svg x="4720"><use xlink:href="#a"/><use xlink:href="#2"/><use xlink:href="#3" y="2.171"/><use xlink:href="#4" y="4.342"/><use xlink:href="#5" y="6.513"/><use xlink:href="#6" y="8.684"/><use xlink:href="#10" y="10.855"/><use xlink:href="#11" y="13.026"/><use xlink:href="#12" y="15.197"/><use xlink:href="#13" y="17.368"/><use xlink:href="#14" y="19.539"/><use xlink:href="#15" y="21.71"/><text y="25.551" class="f">(base)</text><text x="7.014" y="25.551" class="j">➜</text><text x="10.02" y="25.551" class="h">~</text><text x="12.024" y="25.551" class="i">lxc-template-downloader</text><text x="36.072" y="25.551" class="f">get</text><text x="40.08" y="25.551" class="f">alpine</text><text x="47.094" y="25.551" class="f">3.12</text><text x="52.104" y="25.551" class="f">ar</text></svg><svg x="4800"><use xlink:href="#a"/><use xlink:href="#2"/><use xlink:href="#3" y="2.171"/><use xlink:href="#4" y="4.342"/><use xlink:href="#5" y="6.513"/><use xlink:href="#6" y="8.684"/><use xlink:href="#10" y="10.855"/><use xlink:href="#11" y="13.026"/><use xlink:href="#12" y="15.197"/><use xlink:href="#13" y="17.368"/><use xlink:href="#14" y="19.539"/><use xlink:href="#15" y="21.71"/><use xlink:href="#16" y="23.881"/></svg><svg x="4880"><use xlink:href="#a"/><use xlink:href="#2"/><use xlink:href="#3" y="2.171"/><use xlink:href="#4" y="4.342"/><use xlink:href="#5" y="6.513"/><use xlink:href="#6" y="8.684"/><use xlink:href="#10" y="10.855"/><use xlink:href="#11" y="13.026"/><use xlink:href="#12" y="15.197"/><use xlink:href="#13" y="17.368"/><use xlink:href="#14" y="19.539"/><use xlink:href="#15" y="21.71"/><text y="25.551" class="f">(base)</text><text x="7.014" y="25.551" class="j">➜</text><text x="10.02" y="25.551" class="h">~</text><text x="12.024" y="25.551" class="i">lxc-template-downloader</text><text x="36.072" y="25.551" class="f">get</text><text x="40.08" y="25.551" class="f">alpine</text><text x="47.094" y="25.551" class="f">3.12</text><text x="52.104" y="25.551" class="f">armd</text></svg><svg x="4960"><use xlink:href="#a"/><use xlink:href="#2"/><use xlink:href="#3" y="2.171"/><use xlink:href="#4" y="4.342"/><use xlink:href="#5" y="6.513"/><use xlink:href="#6" y="8.684"/><use xlink:href="#10" y="10.855"/><use xlink:href="#11" y="13.026"/><use xlink:href="#12" y="15.197"/><use xlink:href="#13" y="17.368"/><use xlink:href="#14" y="19.539"/><use xlink:href="#15" y="21.71"/><use xlink:href="#16" y="23.881"/></svg><svg x="5040"><use xlink:href="#a"/><use xlink:href="#2"/><use xlink:href="#3" y="2.171"/><use xlink:href="#4" y="4.342"/><use xlink:href="#5" y="6.513"/><use xlink:href="#6" y="8.684"/><use xlink:href="#10" y="10.855"/><use xlink:href="#11" y="13.026"/><use xlink:href="#12" y="15.197"/><use xlink:href="#13" y="17.368"/><use xlink:href="#14" y="19.539"/><use xlink:href="#15" y="21.71"/><text y="25.551" class="f">(base)</text><text x="7.014" y="25.551" class="j">➜</text><text x="10.02" y="25.551" class="h">~</text><text x="12.024" y="25.551" class="i">lxc-template-downloader</text><text x="36.072" y="25.551" class="f">get</text><text x="40.08" y="25.551" class="f">alpine</text><text x="47.094" y="25.551" class="f">3.12</text><text x="52.104" y="25.551" class="f">arm6</text></svg><svg x="5120"><use xlink:href="#a"/><use xlink:href="#2"/><use xlink:href="#3" y="2.171"/><use xlink:href="#4" y="4.342"/><use xlink:href="#5" y="6.513"/><use xlink:href="#6" y="8.684"/><use xlink:href="#10" y="10.855"/><use xlink:href="#11" y="13.026"/><use xlink:href="#12" y="15.197"/><use xlink:href="#13" y="17.368"/><use xlink:href="#14" y="19.539"/><use xlink:href="#15" y="21.71"/><use xlink:href="#17" y="23.881"/></svg><svg x="5200"><use xlink:href="#a"/><use xlink:href="#2"/><use xlink:href="#3" y="2.171"/><use xlink:href="#4" y="4.342"/><use xlink:href="#5" y="6.513"/><use xlink:href="#6" y="8.684"/><use xlink:href="#10" y="10.855"/><use xlink:href="#11" y="13.026"/><use xlink:href="#12" y="15.197"/><use xlink:href="#13" y="17.368"/><use xlink:href="#14" y="19.539"/><use xlink:href="#15" y="21.71"/><use xlink:href="#17" y="23.881"/></svg><svg x="5280"><use xlink:href="#a"/><use xlink:href="#2"/><use xlink:href="#3" y="2.171"/><use xlink:href="#4" y="4.342"/><use xlink:href="#5" y="6.513"/><use xlink:href="#6" y="8.684"/><use xlink:href="#10" y="10.855"/><use xlink:href="#11" y="13.026"/><use xlink:href="#12" y="15.197"/><use xlink:href="#13" y="17.368"/><use xlink:href="#14" y="19.539"/><use xlink:href="#15" y="21.71"/><use xlink:href="#17" y="23.881"/></svg><svg x="5360"><use xlink:href="#a"/><use xlink:href="#2"/><use xlink:href="#3" y="2.171"/><use xlink:href="#4" y="4.342"/><use xlink:href="#5" y="6.513"/><use xlink:href="#6" y="8.684"/><use xlink:href="#10" y="10.855"/><use xlink:href="#11" y="13.026"/><use xlink:href="#12" y="15.197"/><use xlink:href="#13" y="17.368"/><use xlink:href="#14" y="19.539"/><use xlink:href="#15" y="21.71"/><use xlink:href="#17" y="23.881"/></svg><svg x="5440"><use xlink:href="#a"/><use xlink:href="#2"/><use xlink:href="#3" y="2.171"/><use xlink:href="#4" y="4.342"/><use xlink:href="#5" y="6.513"/><use xlink:href="#6" y="8.684"/><use xlink:href="#10" y="10.855"/><use xlink:href="#11" y="13.026"/><use xlink:href="#12" y="15.197"/><use xlink:href="#13" y="17.368"/><use xlink:href="#14" y="19.539"/><use xlink:href="#15" y="21.71"/><use xlink:href="#17" y="23.881"/></svg><svg x="5520"><use xlink:href="#a"/><use xlink:href="#2"/><use xlink:href="#3" y="2.171"/><use xlink:href="#4" y="4.342"/><use xlink:href="#5" y="6.513"/><use xlink:href="#6" y="8.684"/><use xlink:href="#10" y="10.855"/><use xlink:href="#11" y="13.026"/><use xlink:href="#12" y="15.197"/><use xlink:href="#13" y="17.368"/><use xlink:href="#14" y="19.539"/><use xlink:href="#15" y="21.71"/><use xlink:href="#17" y="23.881"/></svg><svg x="5600"><use xlink:href="#a"/><use xlink:href="#2"/><use xlink:href="#3" y="2.171"/><use xlink:href="#4" y="4.342"/><use xlink:href="#5" y="6.513"/><use xlink:href="#6" y="8.684"/><use xlink:href="#10" y="10.855"/><use xlink:href="#11" y="13.026"/><use xlink:href="#12" y="15.197"/><use xlink:href="#13" y="17.368"/><use xlink:href="#14" y="19.539"/><use xlink:href="#15" y="21.71"/><use xlink:href="#17" y="23.881"/><use xlink:href="#1" y="26.052"/></svg><svg x="5680"><use xlink:href="#a"/><use xlink:href="#2"/><use xlink:href="#3" y="2.171"/><use xlink:href="#4" y="4.342"/><use xlink:href="#5" y="6.513"/><use xlink:href="#6" y="8.684"/><use xlink:href="#10" y="10.855"/><use xlink:href="#11" y="13.026"/><use xlink:href="#12" y="15.197"/><use xlink:href="#13" y="17.368"/><use xlink:href="#14" y="19.539"/><use xlink:href="#15" y="21.71"/><use xlink:href="#17" y="23.881"/><use xlink:href="#1" y="26.052"/></svg><svg x="5760"><use xlink:href="#a"/><use xlink:href="#2"/><use xlink:href="#3" y="2.171"/><use xlink:href="#4" y="4.342"/><use xlink:href="#5" y="6.513"/><use xlink:href="#6" y="8.684"/><use xlink:href="#10" y="10.855"/><use xlink:href="#11" y="13.026"/><use xlink:href="#12" y="15.197"/><use xlink:href="#13" y="17.368"/><use xlink:href="#14" y="19.539"/><use xlink:href="#15" y="21.71"/><use xlink:href="#17" y="23.881"/><use xlink:href="#1" y="26.052"/></svg></svg></g></g></svg></svg>