<svg xmlns="http://www.w3.org/2000/svg" xmlns:xlink="http://www.w3.org/1999/xlink" width="840" height="602.75"><rect width="840" height="602.75" rx="5" ry="5" class="a"/><svg y="0%" x="0%"><circle cx="20" cy="20" r="6" fill="#ff5f58"/><circle cx="40" cy="20" r="6" fill="#ffbd2e"/><circle cx="60" cy="20" r="6" fill="#18c132"/></svg><svg height="542.75" viewBox="0 0 80 54.275" width="800" x="15" xmlns="http://www.w3.org/2000/svg" xmlns:xlink="http://www.w3.org/1999/xlink" y="50"><style>@keyframes n{0%{transform:translateX(0)}.9%{transform:translateX(-160px)}1.8%{transform:translateX(-240px)}1.9%{transform:translateX(-400px)}11.1%{transform:translateX(-480px)}12.1%{transform:translateX(-560px)}13.4%{transform:translateX(-640px)}16.3%{transform:translateX(-720px)}24.5%{transform:translateX(-800px)}33.2%{transform:translateX(-1040px)}47.1%{transform:translateX(-1200px)}47.2%{transform:translateX(-1360px)}61.1%{transform:translateX(-1440px)}62.2%{transform:translateX(-1520px)}63.3%{transform:translateX(-1600px)}70.5%{transform:translateX(-1680px)}81.6%{transform:translateX(-1840px)}81.7%{transform:translateX(-2080px)}81.9%{transform:translateX(-2160px)}82.6%{transform:translateX(-2320px)}82.9%{transform:translateX(-2400px)}83%{transform:translateX(-2560px)}83.1%{transform:translateX(-2800px)}to{transform:translateX(-2880px)}}.a{fill:#282d35}.f{fill:#b9c0cb;white-space:pre}.g{fill:#a8cc8c;font-weight:700}.g,.h,.i,.k,.l{white-space:pre}.h{fill:#66c2cd;font-weight:700}.i,.k,.l{fill:#a8cc8c}.k,.l{fill:#dbab79}.l{fill:#e88388;font-weight:700}</style><g font-family="Monaco,Consolas,Menlo,'Bitstream Vera Sans Mono','Powerline Symbols',monospace" font-size="1.67"><defs><symbol id="1"><text y="1.67" class="f">(base)</text><text x="7.014" y="1.67" class="g">➜</text><text x="10.02" y="1.67" class="h">~</text></symbol><symbol id="2"><text y="1.67" class="f">(base)</text><text x="7.014" y="1.67" class="g">➜</text><text x="10.02" y="1.67" class="h">~</text><text x="12.024" y="1.67" class="i">lxc-template-downloader</text><text x="36.072" y="1.67" class="f">get</text><text x="40.08" y="1.67" class="f">alpine</text><text x="47.094" y="1.67" class="f">3.12</text><text x="52.104" y="1.67" class="f">arm64</text></symbol><symbol id="3"><text y="1.67" class="f">(base)</text><text x="7.014" y="1.67" class="g">➜</text><text x="10.02" y="1.67" class="h">~</text><text x="12.024" y="1.67" class="i">tar</text><text x="16.032" y="1.67" class="f">-tf</text><text x="20.04" y="1.67" style="white-space:pre" fill="#b9c0cb" text-decoration="underline">./alpine-3.12-arm64-default-20220305.tar.xz</text><text x="64.128" y="1.67" class="f">|</text><text x="66.132" y="1.67" class="i">grep</text><text x="71.142" y="1.67" class="f">-E</text><text x="74.148" y="1.67" class="k">&apos;^\./\</text></symbol><symbol id="4"><text y="1.67" class="k">w*/$&apos;</text></symbol><symbol id="5"><text y="1.67" class="l">./proc/</text></symbol><symbol id="6"><text y="1.67" class="l">./dev/</text></symbol><symbol id="7"><text y="1.67" class="l">./root/</text></symbol><symbol id="8"><text y="1.67" class="l">./var/</text></symbol><symbol id="9"><text y="1.67" class="l">./opt/</text></symbol><symbol id="10"><text y="1.67" class="l">./media/</text></symbol><symbol id="11"><text y="1.67" class="l">./srv/</text></symbol><symbol id="12"><text y="1.67" class="l">./tmp/</text></symbol><symbol id="13"><text y="1.67" class="l">./mnt/</text></symbol><symbol id="14"><text y="1.67" class="l">./sys/</text></symbol><symbol id="15"><text y="1.67" class="l">./sbin/</text></symbol><symbol id="16"><text y="1.67" class="l">./lib/</text></symbol><symbol id="17"><text y="1.67" class="l">./home/</text></symbol><symbol id="18"><text y="1.67" class="l">./run/</text></symbol><symbol id="19"><text y="1.67" class="l">./etc/</text></symbol><symbol id="20"><text y="1.67" class="l">./usr/</text></symbol><symbol id="21"><text y="1.67" class="l">./bin/</text></symbol><symbol id="a"><path fill="transparent" d="M0 0h80v25H0z"/></symbol></defs><path class="a" d="M0 0h80v54.275H0z"/><g style="animation-duration:11.269947s;animation-iteration-count:infinite;animation-name:n;animation-timing-function:steps(1,end)"><svg width="2960"><svg><use xlink:href="#a"/></svg><svg x="80"><use xlink:href="#a"/></svg><svg x="160"><use xlink:href="#a"/></svg><svg x="240"><use xlink:href="#a"/></svg><svg x="320"><use xlink:href="#a"/><use xlink:href="#1"/></svg><svg x="400"><use xlink:href="#a"/><use xlink:href="#1"/></svg><svg x="480"><use xlink:href="#a"/><text y="1.67" class="f">(base)</text><text x="7.014" y="1.67" class="g">➜</text><text x="10.02" y="1.67" class="h">~</text><text x="12.024" y="1.67" class="i">l</text></svg><svg x="560"><use xlink:href="#a"/><text y="1.67" class="f">(base)</text><text x="7.014" y="1.67" class="g">➜</text><text x="10.02" y="1.67" class="h">~</text><text x="12.024" y="1.67" class="l">lx</text></svg><svg x="640"><use xlink:href="#a"/><text y="1.67" class="f">(base)</text><text x="7.014" y="1.67" class="g">➜</text><text x="10.02" y="1.67" class="h">~</text><text x="12.024" y="1.67" class="l">lxc</text></svg><svg x="720"><use xlink:href="#a"/><text y="1.67" class="f">(base)</text><text x="7.014" y="1.67" class="g">➜</text><text x="10.02" y="1.67" class="h">~</text><text x="12.024" y="1.67" class="i">lxc-template-downloader</text></svg><svg x="800"><use xlink:href="#a"/><use xlink:href="#2"/></svg><svg x="880"><use xlink:href="#a"/><use xlink:href="#2"/></svg><svg x="960"><use xlink:href="#a"/><use xlink:href="#2"/></svg><svg x="1040"><use xlink:href="#a"/><use xlink:href="#2"/></svg><svg x="1120"><use xlink:href="#a"/><use xlink:href="#2"/></svg><svg x="1200"><use xlink:href="#a"/><use xlink:href="#2"/></svg><svg x="1280"><use xlink:href="#a"/><use xlink:href="#2"/><use xlink:href="#1" y="2.171"/></svg><svg x="1360"><use xlink:href="#a"/><use xlink:href="#2"/><use xlink:href="#1" y="2.171"/></svg><svg x="1440"><use xlink:href="#a"/><use xlink:href="#2"/><text y="3.841" class="f">(base)</text><text x="7.014" y="3.841" class="g">➜</text><text x="10.02" y="3.841" class="h">~</text><text x="12.024" y="3.841" class="l">t</text></svg><svg x="1520"><use xlink:href="#a"/><use xlink:href="#2"/><text y="3.841" class="f">(base)</text><text x="7.014" y="3.841" class="g">➜</text><text x="10.02" y="3.841" class="h">~</text><text x="12.024" y="3.841" class="l">ta</text></svg><svg x="1600"><use xlink:href="#a"/><use xlink:href="#2"/><text y="3.841" class="f">(base)</text><text x="7.014" y="3.841" class="g">➜</text><text x="10.02" y="3.841" class="h">~</text><text x="12.024" y="3.841" class="i">tar</text></svg><svg x="1680"><use xlink:href="#a"/><use xlink:href="#2"/><use xlink:href="#3" y="2.171"/><use xlink:href="#4" y="4.342"/></svg><svg x="1760"><use xlink:href="#a"/><use xlink:href="#2"/><use xlink:href="#3" y="2.171"/><use xlink:href="#4" y="4.342"/></svg><svg x="1840"><use xlink:href="#a"/><use xlink:href="#2"/><use xlink:href="#3" y="2.171"/><use xlink:href="#4" y="4.342"/></svg><svg x="1920"><use xlink:href="#a"/><use xlink:href="#2"/><use xlink:href="#3" y="2.171"/><use xlink:href="#4" y="4.342"/></svg><svg x="2000"><use xlink:href="#a"/><use xlink:href="#2"/><use xlink:href="#3" y="2.171"/><use xlink:href="#4" y="4.342"/><use xlink:href="#5" y="6.513"/><use xlink:href="#6" y="8.684"/><use xlink:href="#7" y="10.855"/><use xlink:href="#8" y="13.026"/><use xlink:href="#9" y="15.197"/><use xlink:href="#10" y="17.368"/></svg><svg x="2080"><use xlink:href="#a"/><use xlink:href="#2"/><use xlink:href="#3" y="2.171"/><use xlink:href="#4" y="4.342"/><use xlink:href="#5" y="6.513"/><use xlink:href="#6" y="8.684"/><use xlink:href="#7" y="10.855"/><use xlink:href="#8" y="13.026"/><use xlink:href="#9" y="15.197"/><use xlink:href="#10" y="17.368"/><use xlink:href="#11" y="19.539"/><use xlink:href="#12" y="21.71"/><use xlink:href="#13" y="23.881"/><use xlink:href="#14" y="26.052"/><use xlink:href="#15" y="28.223"/></svg><svg x="2160"><use xlink:href="#a"/><use xlink:href="#2"/><use xlink:href="#3" y="2.171"/><use xlink:href="#4" y="4.342"/><use xlink:href="#5" y="6.513"/><use xlink:href="#6" y="8.684"/><use xlink:href="#7" y="10.855"/><use xlink:href="#8" y="13.026"/><use xlink:href="#9" y="15.197"/><use xlink:href="#10" y="17.368"/><use xlink:href="#11" y="19.539"/><use xlink:href="#12" y="21.71"/><use xlink:href="#13" y="23.881"/><use xlink:href="#14" y="26.052"/><use xlink:href="#15" y="28.223"/><use xlink:href="#16" y="30.394"/></svg><svg x="2240"><use xlink:href="#a"/><use xlink:href="#2"/><use xlink:href="#3" y="2.171"/><use xlink:href="#4" y="4.342"/><use xlink:href="#5" y="6.513"/><use xlink:href="#6" y="8.684"/><use xlink:href="#7" y="10.855"/><use xlink:href="#8" y="13.026"/><use xlink:href="#9" y="15.197"/><use xlink:href="#10" y="17.368"/><use xlink:href="#11" y="19.539"/><use xlink:href="#12" y="21.71"/><use xlink:href="#13" y="23.881"/><use xlink:href="#14" y="26.052"/><use xlink:href="#15" y="28.223"/><use xlink:href="#16" y="30.394"/><use xlink:href="#17" y="32.565"/><use xlink:href="#18" y="34.736"/><use xlink:href="#19" y="36.907"/></svg><svg x="2320"><use xlink:href="#a"/><use xlink:href="#2"/><use xlink:href="#3" y="2.171"/><use xlink:href="#4" y="4.342"/><use xlink:href="#5" y="6.513"/><use xlink:href="#6" y="8.684"/><use xlink:href="#7" y="10.855"/><use xlink:href="#8" y="13.026"/><use xlink:href="#9" y="15.197"/><use xlink:href="#10" y="17.368"/><use xlink:href="#11" y="19.539"/><use xlink:href="#12" y="21.71"/><use xlink:href="#13" y="23.881"/><use xlink:href="#14" y="26.052"/><use xlink:href="#15" y="28.223"/><use xlink:href="#16" y="30.394"/><use xlink:href="#17" y="32.565"/><use xlink:href="#18" y="34.736"/><use xlink:href="#19" y="36.907"/><use xlink:href="#20" y="39.078"/></svg><svg x="2400"><use xlink:href="#a"/><use xlink:href="#2"/><use xlink:href="#3" y="2.171"/><use xlink:href="#4" y="4.342"/><use xlink:href="#5" y="6.513"/><use xlink:href="#6" y="8.684"/><use xlink:href="#7" y="10.855"/><use xlink:href="#8" y="13.026"/><use xlink:href="#9" y="15.197"/><use xlink:href="#10" y="17.368"/><use xlink:href="#11" y="19.539"/><use xlink:href="#12" y="21.71"/><use xlink:href="#13" y="23.881"/><use xlink:href="#14" y="26.052"/><use xlink:href="#15" y="28.223"/><use xlink:href="#16" y="30.394"/><use xlink:href="#17" y="32.565"/><use xlink:href="#18" y="34.736"/><use xlink:href="#19" y="36.907"/><use xlink:href="#20" y="39.078"/><use xlink:href="#21" y="41.249"/></svg><svg x="2480"><use xlink:href="#a"/><use xlink:href="#2"/><use xlink:href="#3" y="2.171"/><use xlink:href="#4" y="4.342"/><use xlink:href="#5" y="6.513"/><use xlink:href="#6" y="8.684"/><use xlink:href="#7" y="10.855"/><use xlink:href="#8" y="13.026"/><use xlink:href="#9" y="15.197"/><use xlink:href="#10" y="17.368"/><use xlink:href="#11" y="19.539"/><use xlink:href="#12" y="21.71"/><use xlink:href="#13" y="23.881"/><use xlink:href="#14" y="26.052"/><use xlink:href="#15" y="28.223"/><use xlink:href="#16" y="30.394"/><use xlink:href="#17" y="32.565"/><use xlink:href="#18" y="34.736"/><use xlink:href="#19" y="36.907"/><use xlink:href="#20" y="39.078"/><use xlink:href="#21" y="41.249"/></svg><svg x="2560"><use xlink:href="#a"/><use xlink:href="#2"/><use xlink:href="#3" y="2.171"/><use xlink:href="#4" y="4.342"/><use xlink:href="#5" y="6.513"/><use xlink:href="#6" y="8.684"/><use xlink:href="#7" y="10.855"/><use xlink:href="#8" y="13.026"/><use xlink:href="#9" y="15.197"/><use xlink:href="#10" y="17.368"/><use xlink:href="#11" y="19.539"/><use xlink:href="#12" y="21.71"/><use xlink:href="#13" y="23.881"/><use xlink:href="#14" y="26.052"/><use xlink:href="#15" y="28.223"/><use xlink:href="#16" y="30.394"/><use xlink:href="#17" y="32.565"/><use xlink:href="#18" y="34.736"/><use xlink:href="#19" y="36.907"/><use xlink:href="#20" y="39.078"/><use xlink:href="#21" y="41.249"/></svg><svg x="2640"><use xlink:href="#a"/><use xlink:href="#2"/><use xlink:href="#3" y="2.171"/><use xlink:href="#4" y="4.342"/><use xlink:href="#5" y="6.513"/><use xlink:href="#6" y="8.684"/><use xlink:href="#7" y="10.855"/><use xlink:href="#8" y="13.026"/><use xlink:href="#9" y="15.197"/><use xlink:href="#10" y="17.368"/><use xlink:href="#11" y="19.539"/><use xlink:href="#12" y="21.71"/><use xlink:href="#13" y="23.881"/><use xlink:href="#14" y="26.052"/><use xlink:href="#15" y="28.223"/><use xlink:href="#16" y="30.394"/><use xlink:href="#17" y="32.565"/><use xlink:href="#18" y="34.736"/><use xlink:href="#19" y="36.907"/><use xlink:href="#20" y="39.078"/><use xlink:href="#21" y="41.249"/><use xlink:href="#1" y="43.42"/></svg><svg x="2720"><use xlink:href="#a"/><use xlink:href="#2"/><use xlink:href="#3" y="2.171"/><use xlink:href="#4" y="4.342"/><use xlink:href="#5" y="6.513"/><use xlink:href="#6" y="8.684"/><use xlink:href="#7" y="10.855"/><use xlink:href="#8" y="13.026"/><use xlink:href="#9" y="15.197"/><use xlink:href="#10" y="17.368"/><use xlink:href="#11" y="19.539"/><use xlink:href="#12" y="21.71"/><use xlink:href="#13" y="23.881"/><use xlink:href="#14" y="26.052"/><use xlink:href="#15" y="28.223"/><use xlink:href="#16" y="30.394"/><use xlink:href="#17" y="32.565"/><use xlink:href="#18" y="34.736"/><use xlink:href="#19" y="36.907"/><use xlink:href="#20" y="39.078"/><use xlink:href="#21" y="41.249"/><use xlink:href="#1" y="43.42"/></svg><svg x="2800"><use xlink:href="#a"/><use xlink:href="#2"/><use xlink:href="#3" y="2.171"/><use xlink:href="#4" y="4.342"/><use xlink:href="#5" y="6.513"/><use xlink:href="#6" y="8.684"/><use xlink:href="#7" y="10.855"/><use xlink:href="#8" y="13.026"/><use xlink:href="#9" y="15.197"/><use xlink:href="#10" y="17.368"/><use xlink:href="#11" y="19.539"/><use xlink:href="#12" y="21.71"/><use xlink:href="#13" y="23.881"/><use xlink:href="#14" y="26.052"/><use xlink:href="#15" y="28.223"/><use xlink:href="#16" y="30.394"/><use xlink:href="#17" y="32.565"/><use xlink:href="#18" y="34.736"/><use xlink:href="#19" y="36.907"/><use xlink:href="#20" y="39.078"/><use xlink:href="#21" y="41.249"/><use xlink:href="#1" y="43.42"/></svg><svg x="2880"><use xlink:href="#a"/><use xlink:href="#2"/><use xlink:href="#3" y="2.171"/><use xlink:href="#4" y="4.342"/><use xlink:href="#5" y="6.513"/><use xlink:href="#6" y="8.684"/><use xlink:href="#7" y="10.855"/><use xlink:href="#8" y="13.026"/><use xlink:href="#9" y="15.197"/><use xlink:href="#10" y="17.368"/><use xlink:href="#11" y="19.539"/><use xlink:href="#12" y="21.71"/><use xlink:href="#13" y="23.881"/><use xlink:href="#14" y="26.052"/><use xlink:href="#15" y="28.223"/><use xlink:href="#16" y="30.394"/><use xlink:href="#17" y="32.565"/><use xlink:href="#18" y="34.736"/><use xlink:href="#19" y="36.907"/><use xlink:href="#20" y="39.078"/><use xlink:href="#21" y="41.249"/><use xlink:href="#1" y="43.42"/></svg></svg></g></g></svg></svg>