<svg xmlns="http://www.w3.org/2000/svg" xmlns:xlink="http://www.w3.org/1999/xlink" width="840" height="602.75"><rect width="840" height="602.75" rx="5" ry="5" class="a"/><svg y="0%" x="0%"><circle cx="20" cy="20" r="6" fill="#ff5f58"/><circle cx="40" cy="20" r="6" fill="#ffbd2e"/><circle cx="60" cy="20" r="6" fill="#18c132"/></svg><svg height="542.75" viewBox="0 0 80 54.275" width="800" x="15" xmlns="http://www.w3.org/2000/svg" xmlns:xlink="http://www.w3.org/1999/xlink" y="50"><style>@keyframes k{0%{transform:translateX(0)}1.2%{transform:translateX(-160px)}2.8%{transform:translateX(-240px)}2.9%{transform:translateX(-400px)}33.7%{transform:translateX(-480px)}35.3%{transform:translateX(-560px)}36.5%{transform:translateX(-640px)}43.1%{transform:translateX(-720px)}56.7%{transform:translateX(-800px)}71.5%{transform:translateX(-880px)}71.6%{transform:translateX(-1040px)}73.4%{transform:translateX(-1200px)}73.5%{transform:translateX(-1440px)}73.6%{transform:translateX(-1600px)}to{transform:translateX(-1680px)}}.a{fill:#282d35}.f{fill:#b9c0cb;white-space:pre}.g{fill:#a8cc8c;font-weight:700}.g,.h,.i,.m{white-space:pre}.h{fill:#66c2cd;font-weight:700}.i,.m{fill:#a8cc8c}.m{fill:#e88388;font-weight:700}</style><g font-family="Monaco,Consolas,Menlo,'Bitstream Vera Sans Mono','Powerline Symbols',monospace" font-size="1.67"><defs><symbol id="1"><text y="1.67" class="f">(base)</text><text x="7.014" y="1.67" class="g">➜</text><text x="10.02" y="1.67" class="h">~</text></symbol><symbol id="2"><text y="1.67" class="f">(base)</text><text x="7.014" y="1.67" class="g">➜</text><text x="10.02" y="1.67" class="h">~</text><text x="12.024" y="1.67" class="i">lxc-template-downloader</text><text x="36.072" y="1.67" class="f">search</text><text x="43.086" y="1.67" class="f">ubuntu</text></symbol><symbol id="3"><text y="1.67" class="f">ubuntu</text><text x="7.014" y="1.67" class="f">impish</text><text x="14.028" y="1.67" class="f">s390x</text><text x="20.04" y="1.67" class="f">cloud</text></symbol><symbol id="4"><text y="1.67" class="f">ubuntu</text><text x="7.014" y="1.67" class="f">impish</text><text x="14.028" y="1.67" class="f">s390x</text><text x="20.04" y="1.67" class="f">default</text></symbol><symbol id="5"><text y="1.67" class="f">ubuntu</text><text x="7.014" y="1.67" class="f">jammy</text><text x="13.026" y="1.67" class="f">amd64</text><text x="19.038" y="1.67" class="f">cloud</text></symbol><symbol id="6"><text y="1.67" class="f">ubuntu</text><text x="7.014" y="1.67" class="f">jammy</text><text x="13.026" y="1.67" class="f">amd64</text><text x="19.038" y="1.67" class="f">default</text></symbol><symbol id="7"><text y="1.67" class="f">ubuntu</text><text x="7.014" y="1.67" class="f">jammy</text><text x="13.026" y="1.67" class="f">arm64</text><text x="19.038" y="1.67" class="f">cloud</text></symbol><symbol id="8"><text y="1.67" class="f">ubuntu</text><text x="7.014" y="1.67" class="f">jammy</text><text x="13.026" y="1.67" class="f">arm64</text><text x="19.038" y="1.67" class="f">default</text></symbol><symbol id="9"><text y="1.67" class="f">ubuntu</text><text x="7.014" y="1.67" class="f">jammy</text><text x="13.026" y="1.67" class="f">armhf</text><text x="19.038" y="1.67" class="f">cloud</text></symbol><symbol id="10"><text y="1.67" class="f">ubuntu</text><text x="7.014" y="1.67" class="f">jammy</text><text x="13.026" y="1.67" class="f">armhf</text><text x="19.038" y="1.67" class="f">default</text></symbol><symbol id="11"><text y="1.67" class="f">ubuntu</text><text x="7.014" y="1.67" class="f">jammy</text><text x="13.026" y="1.67" class="f">ppc64el</text><text x="21.042" y="1.67" class="f">cloud</text></symbol><symbol id="12"><text y="1.67" class="f">ubuntu</text><text x="7.014" y="1.67" class="f">jammy</text><text x="13.026" y="1.67" class="f">ppc64el</text><text x="21.042" y="1.67" class="f">default</text></symbol><symbol id="13"><text y="1.67" class="f">ubuntu</text><text x="7.014" y="1.67" class="f">jammy</text><text x="13.026" y="1.67" class="f">s390x</text><text x="19.038" y="1.67" class="f">cloud</text></symbol><symbol id="14"><text y="1.67" class="f">ubuntu</text><text x="7.014" y="1.67" class="f">jammy</text><text x="13.026" y="1.67" class="f">s390x</text><text x="19.038" y="1.67" class="f">default</text></symbol><symbol id="15"><text y="1.67" class="f">ubuntu</text><text x="7.014" y="1.67" class="f">xenial</text><text x="14.028" y="1.67" class="f">amd64</text><text x="20.04" y="1.67" class="f">cloud</text></symbol><symbol id="16"><text y="1.67" class="f">ubuntu</text><text x="7.014" y="1.67" class="f">xenial</text><text x="14.028" y="1.67" class="f">amd64</text><text x="20.04" y="1.67" class="f">default</text></symbol><symbol id="17"><text y="1.67" class="f">ubuntu</text><text x="7.014" y="1.67" class="f">xenial</text><text x="14.028" y="1.67" class="f">arm64</text><text x="20.04" y="1.67" class="f">cloud</text></symbol><symbol id="18"><text y="1.67" class="f">ubuntu</text><text x="7.014" y="1.67" class="f">xenial</text><text x="14.028" y="1.67" class="f">arm64</text><text x="20.04" y="1.67" class="f">default</text></symbol><symbol id="19"><text y="1.67" class="f">ubuntu</text><text x="7.014" y="1.67" class="f">xenial</text><text x="14.028" y="1.67" class="f">armhf</text><text x="20.04" y="1.67" class="f">cloud</text></symbol><symbol id="20"><text y="1.67" class="f">ubuntu</text><text x="7.014" y="1.67" class="f">xenial</text><text x="14.028" y="1.67" class="f">armhf</text><text x="20.04" y="1.67" class="f">default</text></symbol><symbol id="21"><text y="1.67" class="f">ubuntu</text><text x="7.014" y="1.67" class="f">xenial</text><text x="14.028" y="1.67" class="f">i386</text><text x="19.038" y="1.67" class="f">cloud</text></symbol><symbol id="22"><text y="1.67" class="f">ubuntu</text><text x="7.014" y="1.67" class="f">xenial</text><text x="14.028" y="1.67" class="f">i386</text><text x="19.038" y="1.67" class="f">default</text></symbol><symbol id="23"><text y="1.67" class="f">ubuntu</text><text x="7.014" y="1.67" class="f">xenial</text><text x="14.028" y="1.67" class="f">ppc64el</text><text x="22.044" y="1.67" class="f">cloud</text></symbol><symbol id="24"><text y="1.67" class="f">ubuntu</text><text x="7.014" y="1.67" class="f">xenial</text><text x="14.028" y="1.67" class="f">ppc64el</text><text x="22.044" y="1.67" class="f">default</text></symbol><symbol id="25"><text y="1.67" class="f">ubuntu</text><text x="7.014" y="1.67" class="f">xenial</text><text x="14.028" y="1.67" class="f">s390x</text><text x="20.04" y="1.67" class="f">cloud</text></symbol><symbol id="26"><text y="1.67" class="f">ubuntu</text><text x="7.014" y="1.67" class="f">xenial</text><text x="14.028" y="1.67" class="f">s390x</text><text x="20.04" y="1.67" class="f">default</text></symbol><symbol id="a"><path fill="transparent" d="M0 0h80v25H0z"/></symbol></defs><path class="a" d="M0 0h80v54.275H0z"/><g style="animation-duration:9.458014s;animation-iteration-count:infinite;animation-name:k;animation-timing-function:steps(1,end)"><svg width="1760"><svg><use xlink:href="#a"/></svg><svg x="80"><use xlink:href="#a"/></svg><svg x="160"><use xlink:href="#a"/></svg><svg x="240"><use xlink:href="#a"/></svg><svg x="320"><use xlink:href="#a"/><use xlink:href="#1"/></svg><svg x="400"><use xlink:href="#a"/><use xlink:href="#1"/></svg><svg x="480"><use xlink:href="#a"/><text y="1.67" class="f">(base)</text><text x="7.014" y="1.67" class="g">➜</text><text x="10.02" y="1.67" class="h">~</text><text x="12.024" y="1.67" class="i">l</text></svg><svg x="560"><use xlink:href="#a"/><text y="1.67" class="f">(base)</text><text x="7.014" y="1.67" class="g">➜</text><text x="10.02" y="1.67" class="h">~</text><text x="12.024" y="1.67" class="m">lx</text></svg><svg x="640"><use xlink:href="#a"/><text y="1.67" class="f">(base)</text><text x="7.014" y="1.67" class="g">➜</text><text x="10.02" y="1.67" class="h">~</text><text x="12.024" y="1.67" class="m">lxc</text></svg><svg x="720"><use xlink:href="#a"/><text y="1.67" class="f">(base)</text><text x="7.014" y="1.67" class="g">➜</text><text x="10.02" y="1.67" class="h">~</text><text x="12.024" y="1.67" class="m">lxc-</text></svg><svg x="800"><use xlink:href="#a"/><use xlink:href="#2"/></svg><svg x="880"><use xlink:href="#a"/><use xlink:href="#2"/></svg><svg x="960"><use xlink:href="#a"/><use xlink:href="#2"/></svg><svg x="1040"><use xlink:href="#a"/><use xlink:href="#2"/></svg><svg x="1120"><use xlink:href="#a"/><text y="1.67" class="f">ubuntu</text><text x="7.014" y="1.67" class="f">bionic</text><text x="14.028" y="1.67" class="f">ppc64el</text><text x="22.044" y="1.67" class="f">cloud</text><text y="3.841" class="f">ubuntu</text><text x="7.014" y="3.841" class="f">bionic</text><text x="14.028" y="3.841" class="f">ppc64el</text><text x="22.044" y="3.841" class="f">default</text><text y="6.012" class="f">ubuntu</text><text x="7.014" y="6.012" class="f">bionic</text><text x="14.028" y="6.012" class="f">s390x</text><text x="20.04" y="6.012" class="f">cloud</text><text y="8.183" class="f">ubuntu</text><text x="7.014" y="8.183" class="f">bionic</text><text x="14.028" y="8.183" class="f">s390x</text><text x="20.04" y="8.183" class="f">default</text><text y="10.354" class="f">ubuntu</text><text x="7.014" y="10.354" class="f">focal</text><text x="13.026" y="10.354" class="f">amd64</text><text x="19.038" y="10.354" class="f">cloud</text><text y="12.525" class="f">ubuntu</text><text x="7.014" y="12.525" class="f">focal</text><text x="13.026" y="12.525" class="f">amd64</text><text x="19.038" y="12.525" class="f">default</text><text y="14.696" class="f">ubuntu</text><text x="7.014" y="14.696" class="f">focal</text><text x="13.026" y="14.696" class="f">amd64</text><text x="19.038" y="14.696" class="f">desktop</text><text y="16.867" class="f">ubuntu</text><text x="7.014" y="16.867" class="f">focal</text><text x="13.026" y="16.867" class="f">arm64</text><text x="19.038" y="16.867" class="f">cloud</text><text y="19.038" class="f">ubuntu</text><text x="7.014" y="19.038" class="f">focal</text><text x="13.026" y="19.038" class="f">arm64</text><text x="19.038" y="19.038" class="f">default</text><text y="21.209" class="f">ubuntu</text><text x="7.014" y="21.209" class="f">focal</text><text x="13.026" y="21.209" class="f">armhf</text><text x="19.038" y="21.209" class="f">cloud</text><text y="23.38" class="f">ubuntu</text><text x="7.014" y="23.38" class="f">focal</text><text x="13.026" y="23.38" class="f">armhf</text><text x="19.038" y="23.38" class="f">default</text><text y="25.551" class="f">ubuntu</text><text x="7.014" y="25.551" class="f">focal</text><text x="13.026" y="25.551" class="f">ppc64el</text><text x="21.042" y="25.551" class="f">cloud</text><text y="27.722" class="f">ubuntu</text><text x="7.014" y="27.722" class="f">focal</text><text x="13.026" y="27.722" class="f">ppc64el</text><text x="21.042" y="27.722" class="f">default</text><text y="29.893" class="f">ubuntu</text><text x="7.014" y="29.893" class="f">focal</text><text x="13.026" y="29.893" class="f">s390x</text><text x="19.038" y="29.893" class="f">cloud</text><text y="32.064" class="f">ubuntu</text><text x="7.014" y="32.064" class="f">focal</text><text x="13.026" y="32.064" class="f">s390x</text><text x="19.038" y="32.064" class="f">default</text><text y="34.235" class="f">ubuntu</text><text x="7.014" y="34.235" class="f">hirsute</text><text x="15.03" y="34.235" class="f">amd64</text><text x="21.042" y="34.235" class="f">cloud</text><text y="36.406" class="f">ubuntu</text><text x="7.014" y="36.406" class="f">hirsute</text><text x="15.03" y="36.406" class="f">amd64</text><text x="21.042" y="36.406" class="f">default</text><text y="38.577" class="f">ubuntu</text><text x="7.014" y="38.577" class="f">hirsute</text><text x="15.03" y="38.577" class="f">amd64</text><text x="21.042" y="38.577" class="f">desktop</text><text y="40.748" class="f">ubuntu</text><text x="7.014" y="40.748" class="f">hirsute</text><text x="15.03" y="40.748" class="f">arm64</text><text x="21.042" y="40.748" class="f">cloud</text><text y="42.919" class="f">ubuntu</text><text x="7.014" y="42.919" class="f">hirsute</text><text x="15.03" y="42.919" class="f">arm64</text><text x="21.042" y="42.919" class="f">default</text><text y="45.09" class="f">ubuntu</text><text x="7.014" y="45.09" class="f">hirsute</text><text x="15.03" y="45.09" class="f">armhf</text><text x="21.042" y="45.09" class="f">cloud</text><text y="47.261" class="f">ubuntu</text><text x="7.014" y="47.261" class="f">hirsute</text><text x="15.03" y="47.261" class="f">armhf</text><text x="21.042" y="47.261" class="f">default</text><text y="49.432" class="f">ubuntu</text><text x="7.014" y="49.432" class="f">hirsute</text><text x="15.03" y="49.432" class="f">ppc64el</text><text x="23.046" y="49.432" class="f">cloud</text><text y="51.603" class="f">ubuntu</text><text x="7.014" y="51.603" class="f">hirsute</text><text x="15.03" y="51.603" class="f">ppc64el</text><text x="23.046" y="51.603" class="f">default</text></svg><svg x="1200"><use xlink:href="#a"/><use xlink:href="#3"/><use xlink:href="#4" y="2.171"/><use xlink:href="#5" y="4.342"/><use xlink:href="#6" y="6.513"/><use xlink:href="#7" y="8.684"/><use xlink:href="#8" y="10.855"/><use xlink:href="#9" y="13.026"/><use xlink:href="#10" y="15.197"/><use xlink:href="#11" y="17.368"/><use xlink:href="#12" y="19.539"/><use xlink:href="#13" y="21.71"/><use xlink:href="#14" y="23.881"/><use xlink:href="#15" y="26.052"/><use xlink:href="#16" y="28.223"/><use xlink:href="#17" y="30.394"/><use xlink:href="#18" y="32.565"/><use xlink:href="#19" y="34.736"/><use xlink:href="#20" y="36.907"/><use xlink:href="#21" y="39.078"/><use xlink:href="#22" y="41.249"/><use xlink:href="#23" y="43.42"/><use xlink:href="#24" y="45.591"/><use xlink:href="#25" y="47.762"/><use xlink:href="#26" y="49.933"/></svg><svg x="1280"><use xlink:href="#a"/><use xlink:href="#3"/><use xlink:href="#4" y="2.171"/><use xlink:href="#5" y="4.342"/><use xlink:href="#6" y="6.513"/><use xlink:href="#7" y="8.684"/><use xlink:href="#8" y="10.855"/><use xlink:href="#9" y="13.026"/><use xlink:href="#10" y="15.197"/><use xlink:href="#11" y="17.368"/><use xlink:href="#12" y="19.539"/><use xlink:href="#13" y="21.71"/><use xlink:href="#14" y="23.881"/><use xlink:href="#15" y="26.052"/><use xlink:href="#16" y="28.223"/><use xlink:href="#17" y="30.394"/><use xlink:href="#18" y="32.565"/><use xlink:href="#19" y="34.736"/><use xlink:href="#20" y="36.907"/><use xlink:href="#21" y="39.078"/><use xlink:href="#22" y="41.249"/><use xlink:href="#23" y="43.42"/><use xlink:href="#24" y="45.591"/><use xlink:href="#25" y="47.762"/><use xlink:href="#26" y="49.933"/></svg><svg x="1360"><use xlink:href="#a"/><use xlink:href="#3"/><use xlink:href="#4" y="2.171"/><use xlink:href="#5" y="4.342"/><use xlink:href="#6" y="6.513"/><use xlink:href="#7" y="8.684"/><use xlink:href="#8" y="10.855"/><use xlink:href="#9" y="13.026"/><use xlink:href="#10" y="15.197"/><use xlink:href="#11" y="17.368"/><use xlink:href="#12" y="19.539"/><use xlink:href="#13" y="21.71"/><use xlink:href="#14" y="23.881"/><use xlink:href="#15" y="26.052"/><use xlink:href="#16" y="28.223"/><use xlink:href="#17" y="30.394"/><use xlink:href="#18" y="32.565"/><use xlink:href="#19" y="34.736"/><use xlink:href="#20" y="36.907"/><use xlink:href="#21" y="39.078"/><use xlink:href="#22" y="41.249"/><use xlink:href="#23" y="43.42"/><use xlink:href="#24" y="45.591"/><use xlink:href="#25" y="47.762"/><use xlink:href="#26" y="49.933"/></svg><svg x="1440"><use xlink:href="#a"/><use xlink:href="#3"/><use xlink:href="#4" y="2.171"/><use xlink:href="#5" y="4.342"/><use xlink:href="#6" y="6.513"/><use xlink:href="#7" y="8.684"/><use xlink:href="#8" y="10.855"/><use xlink:href="#9" y="13.026"/><use xlink:href="#10" y="15.197"/><use xlink:href="#11" y="17.368"/><use xlink:href="#12" y="19.539"/><use xlink:href="#13" y="21.71"/><use xlink:href="#14" y="23.881"/><use xlink:href="#15" y="26.052"/><use xlink:href="#16" y="28.223"/><use xlink:href="#17" y="30.394"/><use xlink:href="#18" y="32.565"/><use xlink:href="#19" y="34.736"/><use xlink:href="#20" y="36.907"/><use xlink:href="#21" y="39.078"/><use xlink:href="#22" y="41.249"/><use xlink:href="#23" y="43.42"/><use xlink:href="#24" y="45.591"/><use xlink:href="#25" y="47.762"/><use xlink:href="#26" y="49.933"/></svg><svg x="1520"><use xlink:href="#a"/><use xlink:href="#3"/><use xlink:href="#4" y="2.171"/><use xlink:href="#5" y="4.342"/><use xlink:href="#6" y="6.513"/><use xlink:href="#7" y="8.684"/><use xlink:href="#8" y="10.855"/><use xlink:href="#9" y="13.026"/><use xlink:href="#10" y="15.197"/><use xlink:href="#11" y="17.368"/><use xlink:href="#12" y="19.539"/><use xlink:href="#13" y="21.71"/><use xlink:href="#14" y="23.881"/><use xlink:href="#15" y="26.052"/><use xlink:href="#16" y="28.223"/><use xlink:href="#17" y="30.394"/><use xlink:href="#18" y="32.565"/><use xlink:href="#19" y="34.736"/><use xlink:href="#20" y="36.907"/><use xlink:href="#21" y="39.078"/><use xlink:href="#22" y="41.249"/><use xlink:href="#23" y="43.42"/><use xlink:href="#24" y="45.591"/><use xlink:href="#25" y="47.762"/><use xlink:href="#26" y="49.933"/><use xlink:href="#1" y="52.104"/></svg><svg x="1600"><use xlink:href="#a"/><use xlink:href="#3"/><use xlink:href="#4" y="2.171"/><use xlink:href="#5" y="4.342"/><use xlink:href="#6" y="6.513"/><use xlink:href="#7" y="8.684"/><use xlink:href="#8" y="10.855"/><use xlink:href="#9" y="13.026"/><use xlink:href="#10" y="15.197"/><use xlink:href="#11" y="17.368"/><use xlink:href="#12" y="19.539"/><use xlink:href="#13" y="21.71"/><use xlink:href="#14" y="23.881"/><use xlink:href="#15" y="26.052"/><use xlink:href="#16" y="28.223"/><use xlink:href="#17" y="30.394"/><use xlink:href="#18" y="32.565"/><use xlink:href="#19" y="34.736"/><use xlink:href="#20" y="36.907"/><use xlink:href="#21" y="39.078"/><use xlink:href="#22" y="41.249"/><use xlink:href="#23" y="43.42"/><use xlink:href="#24" y="45.591"/><use xlink:href="#25" y="47.762"/><use xlink:href="#26" y="49.933"/><use xlink:href="#1" y="52.104"/></svg><svg x="1680"><use xlink:href="#a"/><use xlink:href="#4"/><use xlink:href="#5" y="2.171"/><use xlink:href="#6" y="4.342"/><use xlink:href="#7" y="6.513"/><use xlink:href="#8" y="8.684"/><use xlink:href="#9" y="10.855"/><use xlink:href="#10" y="13.026"/><use xlink:href="#11" y="15.197"/><use xlink:href="#12" y="17.368"/><use xlink:href="#13" y="19.539"/><use xlink:href="#14" y="21.71"/><use xlink:href="#15" y="23.881"/><use xlink:href="#16" y="26.052"/><use xlink:href="#17" y="28.223"/><use xlink:href="#18" y="30.394"/><use xlink:href="#19" y="32.565"/><use xlink:href="#20" y="34.736"/><use xlink:href="#21" y="36.907"/><use xlink:href="#22" y="39.078"/><use xlink:href="#23" y="41.249"/><use xlink:href="#24" y="43.42"/><use xlink:href="#25" y="45.591"/><use xlink:href="#26" y="47.762"/><use xlink:href="#1" y="49.933"/></svg></svg></g></g></svg></svg>